<svg xmlns="http://www.w3.org/2000/svg" version="1.1" xmlns:xlink="http://www.w3.org/1999/xlink" xmlns:svgjs="http://svgjs.dev/svgjs" width="1500" height="1500" viewBox="0 0 1500 1500"><rect width="1500" height="1500" fill="#ffffff"></rect><g transform="matrix(0.6666666666666666,0,0,0.6666666666666666,249.84959349593527,175.37853191489387)"><svg viewBox="0 0 123 141" data-background-color="#293040" preserveAspectRatio="xMidYMid meet" height="1719" width="1500" xmlns="http://www.w3.org/2000/svg" xmlns:xlink="http://www.w3.org/1999/xlink"><g id="tight-bounds" transform="matrix(1,0,0,1,0.018499999999960437,0.19949999999997203)"><svg viewBox="0 0 122.96262445714287 140.60052000000002" height="140.60052000000002" width="122.96262445714287"><g><svg viewBox="0 0 122.96262445714287 140.60052000000002" height="140.60052000000002" width="122.96262445714287"><g><svg viewBox="0 0 122.96262445714287 140.60052000000002" height="140.60052000000002" width="122.96262445714287"><g><path d="M0 140.601v-140.601h122.963v140.601z" fill="#000000" stroke="transparent" stroke-width="0" rx="0%" data-fill-palette-color="tertiary"></path><path d="M3.283 137.317v-134.034h116.396v134.034z" fill="#ffffff" stroke="transparent" stroke-width="0" rx="0%" data-fill-palette-color="quaternary"></path><path d="M9.85 130.751v-120.901h103.263v120.901z" fill="#000000" stroke="transparent" stroke-width="0" data-fill-palette-color="tertiary"></path></g><g transform="matrix(1,0,0,1,19.69974,19.699740000000006)" id="textblocktransform"><svg viewBox="0 0 83.56314445714287 101.20104" height="101.20104" width="83.56314445714287" id="textblock"><g><svg viewBox="0 0 83.56314445714287 101.20104" height="101.20104" width="83.56314445714287"><g transform="matrix(1,0,0,1,0,0)"><svg width="83.56314445714287" viewBox="4.6 -35 28.9 35" height="101.20104" data-palette-color="#293040"><path d="M4.6-35L18.8-35Q25.55-35 29.23-31.88 32.9-28.75 32.9-23.1L32.9-23.1Q32.9-17.2 29.23-13.93 25.55-10.65 18.8-10.65L18.8-10.65 10.5-10.65 10.5 0 4.6 0 4.6-35ZM10.5-15.7L18.8-15.7Q22.85-15.7 25.08-17.48 27.3-19.25 27.3-22.95L27.3-22.95Q27.3-26.5 25.08-28.23 22.85-29.95 18.8-29.95L18.8-29.95 10.5-29.95 10.5-15.7ZM26.8 0L19-12.95 24.8-12.95 33.5 0 26.8 0Z" opacity="1" transform="matrix(1,0,0,1,0,0)" fill="#ffffff" class="wordmark-text-0" data-fill-palette-color="quaternary" id="text-0"></path></svg></g></svg></g></svg></g></svg></g></svg></g><defs></defs></svg><rect width="122.96262445714287" height="140.60052000000002" fill="none" stroke="none" visibility="hidden"></rect></g></svg></g></svg>